<svg width="20" height="20" viewBox="0 0 20 20" fill="none" xmlns="http://www.w3.org/2000/svg">
<path d="M10 0.774414C8.187 0.774414 6.41472 1.31203 4.90727 2.31928C3.39982 3.32652 2.22491 4.75816 1.5311 6.43315C0.8373 8.10814 0.655769 9.95125 1.00947 11.7294C1.36317 13.5076 2.23621 15.1409 3.51819 16.4229C4.80017 17.7049 6.43351 18.5779 8.21167 18.9316C9.98983 19.2853 11.8329 19.1038 13.5079 18.41C15.1829 17.7162 16.6146 16.5413 17.6218 15.0338C18.6291 13.5264 19.1667 11.7541 19.1667 9.94108C19.1667 7.50993 18.2009 5.17835 16.4818 3.45927C14.7627 1.74019 12.4311 0.774414 10 0.774414ZM14.1667 10.7744H10.8333V14.1077C10.8333 14.3288 10.7455 14.5407 10.5893 14.697C10.433 14.8533 10.221 14.9411 10 14.9411C9.77899 14.9411 9.56702 14.8533 9.41074 14.697C9.25446 14.5407 9.16667 14.3288 9.16667 14.1077V10.7744H5.83333C5.61232 10.7744 5.40036 10.6866 5.24408 10.5303C5.0878 10.3741 5 10.1621 5 9.94108C5 9.72007 5.0878 9.50811 5.24408 9.35183C5.40036 9.19555 5.61232 9.10775 5.83333 9.10775H9.16667V5.77441C9.16667 5.5534 9.25446 5.34144 9.41074 5.18516C9.56702 5.02888 9.77899 4.94108 10 4.94108C10.221 4.94108 10.433 5.02888 10.5893 5.18516C10.7455 5.34144 10.8333 5.5534 10.8333 5.77441V9.10775H14.1667C14.3877 9.10775 14.5996 9.19555 14.7559 9.35183C14.9122 9.50811 15 9.72007 15 9.94108C15 10.1621 14.9122 10.3741 14.7559 10.5303C14.5996 10.6866 14.3877 10.7744 14.1667 10.7744Z" fill="black"/>
</svg>
