<svg width="337" height="100" viewBox="0 0 337 100" fill="none" xmlns="http://www.w3.org/2000/svg">
<rect width="337" height="100" rx="5" fill="white"/>
<rect x="12" y="8" width="313" height="83" rx="5" fill="white"/>
<rect x="12.5" y="8.5" width="312" height="82" rx="4.5" stroke="#808080" stroke-opacity="0.55" stroke-dasharray="2 2"/>
<rect x="12.5" y="8.5" width="312" height="82" rx="4.5" stroke="black" stroke-opacity="0.2" stroke-dasharray="2 2"/>
<path d="M183.812 47.1875C179.849 47.1875 176.625 50.4117 176.625 54.375C176.625 58.3383 179.849 61.5625 183.812 61.5625C187.776 61.5625 191 58.3383 191 54.375C191 50.4117 187.776 47.1875 183.812 47.1875ZM186.625 55H184.438V57.1875C184.438 57.5328 184.158 57.8125 183.812 57.8125C183.467 57.8125 183.188 57.5328 183.188 57.1875V55H181C180.655 55 180.375 54.7203 180.375 54.375C180.375 54.0297 180.655 53.75 181 53.75H183.188V51.5625C183.188 51.2172 183.467 50.9375 183.812 50.9375C184.158 50.9375 184.438 51.2172 184.438 51.5625V53.75H186.625C186.97 53.75 187.25 54.0297 187.25 54.375C187.25 54.7203 186.97 55 186.625 55Z" fill="#8E8E93"/>
<path d="M181.882 46.1602C182.341 46.0523 182.52 45.4945 182.209 45.1406L176.092 38.1641C175.617 37.6227 174.932 37.3117 174.212 37.3117C174.212 37.3117 174.212 37.3117 174.211 37.3117C173.491 37.3125 172.805 37.6234 172.33 38.1664L164.027 47.6633L160.177 43.2719C159.702 42.7305 159.017 42.4195 158.298 42.4195C158.297 42.4195 158.297 42.4195 158.296 42.4195C157.575 42.4203 156.89 42.7313 156.416 43.2742L152.25 48.0383V32.9688C152.25 31.1562 153.719 29.6875 155.531 29.6875H181.469C183.281 29.6875 184.75 31.1562 184.75 32.9688V45.4539C184.75 45.7539 184.966 46.0109 185.262 46.0625L185.274 46.0648C185.653 46.1313 186 45.8391 186 45.4547V32.9688C186 30.4664 183.971 28.4375 181.469 28.4375H155.531C153.029 28.4375 151 30.4664 151 32.9688V50.4688C151 52.9711 153.029 55 155.531 55H174.756C175.097 55 175.375 54.7219 175.375 54.3812V54.375C175.375 50.3867 178.157 47.0352 181.882 46.1602Z" fill="#8E8E93"/>
<path d="M164.335 38.3603C166.014 38.1073 167.17 36.541 166.917 34.8618C166.664 33.1827 165.098 32.0265 163.419 32.2795C161.74 32.5325 160.583 34.0988 160.836 35.778C161.089 37.4571 162.656 38.6133 164.335 38.3603Z" fill="#8E8E93"/>
<path d="M148.868 74.14H145.22L144.548 76H143.396L146.42 67.684H147.68L150.692 76H149.54L148.868 74.14ZM148.556 73.252L147.044 69.028L145.532 73.252H148.556ZM151.602 72.688C151.602 72.016 151.738 71.428 152.01 70.924C152.282 70.412 152.654 70.016 153.126 69.736C153.606 69.456 154.142 69.316 154.734 69.316C155.246 69.316 155.722 69.436 156.162 69.676C156.602 69.908 156.938 70.216 157.17 70.6V67.12H158.274V76H157.17V74.764C156.954 75.156 156.634 75.48 156.21 75.736C155.786 75.984 155.29 76.108 154.722 76.108C154.138 76.108 153.606 75.964 153.126 75.676C152.654 75.388 152.282 74.984 152.01 74.464C151.738 73.944 151.602 73.352 151.602 72.688ZM157.17 72.7C157.17 72.204 157.07 71.772 156.87 71.404C156.67 71.036 156.398 70.756 156.054 70.564C155.718 70.364 155.346 70.264 154.938 70.264C154.53 70.264 154.158 70.36 153.822 70.552C153.486 70.744 153.218 71.024 153.018 71.392C152.818 71.76 152.718 72.192 152.718 72.688C152.718 73.192 152.818 73.632 153.018 74.008C153.218 74.376 153.486 74.66 153.822 74.86C154.158 75.052 154.53 75.148 154.938 75.148C155.346 75.148 155.718 75.052 156.054 74.86C156.398 74.66 156.67 74.376 156.87 74.008C157.07 73.632 157.17 73.196 157.17 72.7ZM159.711 72.688C159.711 72.016 159.847 71.428 160.119 70.924C160.391 70.412 160.763 70.016 161.235 69.736C161.715 69.456 162.251 69.316 162.843 69.316C163.355 69.316 163.831 69.436 164.271 69.676C164.711 69.908 165.047 70.216 165.279 70.6V67.12H166.383V76H165.279V74.764C165.063 75.156 164.743 75.48 164.319 75.736C163.895 75.984 163.399 76.108 162.831 76.108C162.247 76.108 161.715 75.964 161.235 75.676C160.763 75.388 160.391 74.984 160.119 74.464C159.847 73.944 159.711 73.352 159.711 72.688ZM165.279 72.7C165.279 72.204 165.179 71.772 164.979 71.404C164.779 71.036 164.507 70.756 164.163 70.564C163.827 70.364 163.455 70.264 163.047 70.264C162.639 70.264 162.267 70.36 161.931 70.552C161.595 70.744 161.327 71.024 161.127 71.392C160.927 71.76 160.827 72.192 160.827 72.688C160.827 73.192 160.927 73.632 161.127 74.008C161.327 74.376 161.595 74.66 161.931 74.86C162.267 75.052 162.639 75.148 163.047 75.148C163.455 75.148 163.827 75.052 164.163 74.86C164.507 74.66 164.779 74.376 164.979 74.008C165.179 73.632 165.279 73.196 165.279 72.7ZM172.52 75.112H175.448V76H171.428V67.636H172.52V75.112ZM179.476 76.108C178.86 76.108 178.3 75.968 177.796 75.688C177.3 75.408 176.908 75.012 176.62 74.5C176.34 73.98 176.2 73.38 176.2 72.7C176.2 72.028 176.344 71.436 176.632 70.924C176.928 70.404 177.328 70.008 177.832 69.736C178.336 69.456 178.9 69.316 179.524 69.316C180.148 69.316 180.712 69.456 181.216 69.736C181.72 70.008 182.116 70.4 182.404 70.912C182.7 71.424 182.848 72.02 182.848 72.7C182.848 73.38 182.696 73.98 182.392 74.5C182.096 75.012 181.692 75.408 181.18 75.688C180.668 75.968 180.1 76.108 179.476 76.108ZM179.476 75.148C179.868 75.148 180.236 75.056 180.58 74.872C180.924 74.688 181.2 74.412 181.408 74.044C181.624 73.676 181.732 73.228 181.732 72.7C181.732 72.172 181.628 71.724 181.42 71.356C181.212 70.988 180.94 70.716 180.604 70.54C180.268 70.356 179.904 70.264 179.512 70.264C179.112 70.264 178.744 70.356 178.408 70.54C178.08 70.716 177.816 70.988 177.616 71.356C177.416 71.724 177.316 72.172 177.316 72.7C177.316 73.236 177.412 73.688 177.604 74.056C177.804 74.424 178.068 74.7 178.396 74.884C178.724 75.06 179.084 75.148 179.476 75.148ZM186.995 69.316C187.563 69.316 188.059 69.44 188.483 69.688C188.915 69.936 189.235 70.248 189.443 70.624V69.424H190.547V76.144C190.547 76.744 190.419 77.276 190.163 77.74C189.907 78.212 189.539 78.58 189.059 78.844C188.587 79.108 188.035 79.24 187.403 79.24C186.539 79.24 185.819 79.036 185.243 78.628C184.667 78.22 184.327 77.664 184.223 76.96H185.303C185.423 77.36 185.671 77.68 186.047 77.92C186.423 78.168 186.875 78.292 187.403 78.292C188.003 78.292 188.491 78.104 188.867 77.728C189.251 77.352 189.443 76.824 189.443 76.144V74.764C189.227 75.148 188.907 75.468 188.483 75.724C188.059 75.98 187.563 76.108 186.995 76.108C186.411 76.108 185.879 75.964 185.399 75.676C184.927 75.388 184.555 74.984 184.283 74.464C184.011 73.944 183.875 73.352 183.875 72.688C183.875 72.016 184.011 71.428 184.283 70.924C184.555 70.412 184.927 70.016 185.399 69.736C185.879 69.456 186.411 69.316 186.995 69.316ZM189.443 72.7C189.443 72.204 189.343 71.772 189.143 71.404C188.943 71.036 188.671 70.756 188.327 70.564C187.991 70.364 187.619 70.264 187.211 70.264C186.803 70.264 186.431 70.36 186.095 70.552C185.759 70.744 185.491 71.024 185.291 71.392C185.091 71.76 184.991 72.192 184.991 72.688C184.991 73.192 185.091 73.632 185.291 74.008C185.491 74.376 185.759 74.66 186.095 74.86C186.431 75.052 186.803 75.148 187.211 75.148C187.619 75.148 187.991 75.052 188.327 74.86C188.671 74.66 188.943 74.376 189.143 74.008C189.343 73.632 189.443 73.196 189.443 72.7ZM195.261 76.108C194.645 76.108 194.085 75.968 193.581 75.688C193.085 75.408 192.693 75.012 192.405 74.5C192.125 73.98 191.985 73.38 191.985 72.7C191.985 72.028 192.129 71.436 192.417 70.924C192.713 70.404 193.113 70.008 193.617 69.736C194.121 69.456 194.685 69.316 195.309 69.316C195.933 69.316 196.497 69.456 197.001 69.736C197.505 70.008 197.901 70.4 198.189 70.912C198.485 71.424 198.633 72.02 198.633 72.7C198.633 73.38 198.481 73.98 198.177 74.5C197.881 75.012 197.477 75.408 196.965 75.688C196.453 75.968 195.885 76.108 195.261 76.108ZM195.261 75.148C195.653 75.148 196.021 75.056 196.365 74.872C196.709 74.688 196.985 74.412 197.193 74.044C197.409 73.676 197.517 73.228 197.517 72.7C197.517 72.172 197.413 71.724 197.205 71.356C196.997 70.988 196.725 70.716 196.389 70.54C196.053 70.356 195.689 70.264 195.297 70.264C194.897 70.264 194.529 70.356 194.193 70.54C193.865 70.716 193.601 70.988 193.401 71.356C193.201 71.724 193.101 72.172 193.101 72.7C193.101 73.236 193.197 73.688 193.389 74.056C193.589 74.424 193.853 74.7 194.181 74.884C194.509 75.06 194.869 75.148 195.261 75.148Z" fill="#8E8E93"/>
</svg>
