<svg width="60" height="14" viewBox="0 0 60 14" fill="none" xmlns="http://www.w3.org/2000/svg">
<rect width="60" height="14" rx="7" fill="black"/>
<path d="M20.344 6.056C20.344 6.52 20.184 6.90667 19.864 7.216C19.5493 7.52 19.0667 7.672 18.416 7.672H17.344V10H16.616V4.424H18.416C19.0453 4.424 19.5227 4.576 19.848 4.88C20.1787 5.184 20.344 5.576 20.344 6.056ZM18.416 7.072C18.8213 7.072 19.12 6.984 19.312 6.808C19.504 6.632 19.6 6.38133 19.6 6.056C19.6 5.368 19.2053 5.024 18.416 5.024H17.344V7.072H18.416ZM21.9768 6.328C22.1048 6.07733 22.2861 5.88267 22.5208 5.744C22.7608 5.60533 23.0515 5.536 23.3928 5.536V6.288H23.2008C22.3848 6.288 21.9768 6.73067 21.9768 7.616V10H21.2488V5.616H21.9768V6.328ZM28.2332 7.64C28.2332 7.77867 28.2252 7.92533 28.2092 8.08H24.7052C24.7319 8.512 24.8785 8.85067 25.1452 9.096C25.4172 9.336 25.7452 9.456 26.1292 9.456C26.4439 9.456 26.7052 9.384 26.9132 9.24C27.1265 9.09067 27.2759 8.89333 27.3612 8.648H28.1452C28.0279 9.06933 27.7932 9.41333 27.4412 9.68C27.0892 9.94133 26.6519 10.072 26.1292 10.072C25.7132 10.072 25.3399 9.97867 25.0092 9.792C24.6839 9.60533 24.4279 9.34133 24.2412 9C24.0545 8.65333 23.9612 8.25333 23.9612 7.8C23.9612 7.34667 24.0519 6.94933 24.2332 6.608C24.4145 6.26667 24.6679 6.00533 24.9932 5.824C25.3239 5.63733 25.7025 5.544 26.1292 5.544C26.5452 5.544 26.9132 5.63467 27.2332 5.816C27.5532 5.99733 27.7985 6.248 27.9692 6.568C28.1452 6.88267 28.2332 7.24 28.2332 7.64ZM27.4812 7.488C27.4812 7.21067 27.4199 6.97333 27.2972 6.776C27.1745 6.57333 27.0065 6.42133 26.7932 6.32C26.5852 6.21333 26.3532 6.16 26.0972 6.16C25.7292 6.16 25.4145 6.27733 25.1532 6.512C24.8972 6.74667 24.7505 7.072 24.7132 7.488H27.4812ZM34.4661 5.536C34.8075 5.536 35.1115 5.608 35.3781 5.752C35.6448 5.89067 35.8555 6.10133 36.0101 6.384C36.1648 6.66667 36.2421 7.01067 36.2421 7.416V10H35.5221V7.52C35.5221 7.08267 35.4128 6.74933 35.1941 6.52C34.9808 6.28533 34.6901 6.168 34.3221 6.168C33.9435 6.168 33.6421 6.29067 33.4181 6.536C33.1941 6.776 33.0821 7.12533 33.0821 7.584V10H32.3621V7.52C32.3621 7.08267 32.2528 6.74933 32.0341 6.52C31.8208 6.28533 31.5301 6.168 31.1621 6.168C30.7835 6.168 30.4821 6.29067 30.2581 6.536C30.0341 6.776 29.9221 7.12533 29.9221 7.584V10H29.1941V5.616H29.9221V6.248C30.0661 6.01867 30.2581 5.84267 30.4981 5.72C30.7435 5.59733 31.0128 5.536 31.3061 5.536C31.6741 5.536 31.9995 5.61867 32.2821 5.784C32.5648 5.94933 32.7755 6.192 32.9141 6.512C33.0368 6.20267 33.2395 5.96267 33.5221 5.792C33.8048 5.62133 34.1195 5.536 34.4661 5.536ZM37.8123 4.904C37.6736 4.904 37.5563 4.856 37.4603 4.76C37.3643 4.664 37.3163 4.54667 37.3163 4.408C37.3163 4.26933 37.3643 4.152 37.4603 4.056C37.5563 3.96 37.6736 3.912 37.8123 3.912C37.9456 3.912 38.0576 3.96 38.1483 4.056C38.2443 4.152 38.2923 4.26933 38.2923 4.408C38.2923 4.54667 38.2443 4.664 38.1483 4.76C38.0576 4.856 37.9456 4.904 37.8123 4.904ZM38.1643 5.616V10H37.4363V5.616H38.1643ZM43.2931 5.616V10H42.5651V9.352C42.4264 9.576 42.2317 9.752 41.9811 9.88C41.7357 10.0027 41.4637 10.064 41.1651 10.064C40.8237 10.064 40.5171 9.99467 40.2451 9.856C39.9731 9.712 39.7571 9.49867 39.5971 9.216C39.4424 8.93333 39.3651 8.58933 39.3651 8.184V5.616H40.0851V8.088C40.0851 8.52 40.1944 8.85333 40.4131 9.088C40.6317 9.31733 40.9304 9.432 41.3091 9.432C41.6984 9.432 42.0051 9.312 42.2291 9.072C42.4531 8.832 42.5651 8.48267 42.5651 8.024V5.616H43.2931ZM49.7943 5.536C50.1356 5.536 50.4396 5.608 50.7063 5.752C50.9729 5.89067 51.1836 6.10133 51.3383 6.384C51.4929 6.66667 51.5703 7.01067 51.5703 7.416V10H50.8503V7.52C50.8503 7.08267 50.7409 6.74933 50.5223 6.52C50.3089 6.28533 50.0183 6.168 49.6503 6.168C49.2716 6.168 48.9703 6.29067 48.7463 6.536C48.5223 6.776 48.4103 7.12533 48.4103 7.584V10H47.6903V7.52C47.6903 7.08267 47.5809 6.74933 47.3623 6.52C47.1489 6.28533 46.8583 6.168 46.4903 6.168C46.1116 6.168 45.8103 6.29067 45.5863 6.536C45.3623 6.776 45.2503 7.12533 45.2503 7.584V10H44.5223V5.616H45.2503V6.248C45.3943 6.01867 45.5863 5.84267 45.8263 5.72C46.0716 5.59733 46.3409 5.536 46.6343 5.536C47.0023 5.536 47.3276 5.61867 47.6103 5.784C47.8929 5.94933 48.1036 6.192 48.2423 6.512C48.3649 6.20267 48.5676 5.96267 48.8503 5.792C49.1329 5.62133 49.4476 5.536 49.7943 5.536Z" fill="white"/>
<path d="M10 3L11.1314 5.86863L14 7L11.1314 8.13137L10 11L8.86863 8.13137L6 7L8.86863 5.86863L10 3Z" fill="white"/>
</svg>
